<!DOCTYPE svg PUBLIC "-//W3C//DTD SVG 1.1//EN" "http://www.w3.org/Graphics/SVG/1.1/DTD/svg11.dtd">
<!-- Uploaded to: SVG Repo, www.svgrepo.com, Transformed by: SVG Repo Mixer Tools -->
<svg width="800px" height="800px" viewBox="0 0 1000 1000" data-name="Layer 2" id="Layer_2" xmlns="http://www.w3.org/2000/svg" fill="#3D4451" transform="rotate(45)" stroke="#3D4451">
<g id="SVGRepo_bgCarrier" stroke-width="0"/>
<g id="SVGRepo_tracerCarrier" stroke-linecap="round" stroke-linejoin="round"/>
<g id="SVGRepo_iconCarrier">
<defs>
<style>.cls-1{fill:none;stroke:#020202;stroke-linecap:round;stroke-miterlimit:10;stroke-width:7;}</style>
</defs>
<path class="cls-1" d="M582.36,792.87C644,754.73,686.46,675.08,686.46,583,686.46,453.83,603,349.13,500,349.13S313.54,453.83,313.54,583c0,115.3,66.52,211.11,154.06,230.35a26.62,26.62,0,0,0,32.4-26v-231"/>
<line class="cls-1" x1="200.26" x2="260.51" y1="581.56" y2="581.56"/>
<line class="cls-1" x1="739.49" x2="799.74" y1="581.56" y2="581.56"/>
<line class="cls-1" x1="273.04" x2="315.64" y1="354.59" y2="397.2"/>
<line class="cls-1" x1="684.36" x2="726.96" y1="765.91" y2="808.52"/>
<line class="cls-1" x1="726.96" x2="684.36" y1="354.59" y2="397.2"/>
<line class="cls-1" x1="315.64" x2="273.04" y1="765.91" y2="808.52"/>
<path class="cls-1" d="M412.94,337.52c0-44.87,39-81.24,87.06-81.24s87.06,36.37,87.06,81.24"/>
<path class="cls-1" d="M431.73,186a46.47,46.47,0,0,1,46.47,46.46"/>
<path class="cls-1" d="M568.27,186a46.47,46.47,0,0,0-46.47,46.46"/>
</g>
</svg>